<svg xmlns="http://www.w3.org/2000/svg" viewBox="0 0 160 44" width="160" height="44" fill="none">
  <!-- Icon: blue rounded square -->
  <rect width="44" height="44" rx="10" fill="#1B6FE4"/>

  <!-- D letter -->
  <path d="M11 12h8c4.97 0 8 3.2 8 10s-3.03 10-8 10h-8V12z
           M15.5 16v12h3c2.8 0 4-1.8 4-6s-1.2-6-4-6h-3z"
        fill="white"/>

  <!-- X letter -->
  <path d="M29 12l5 8.5L39 12h4.5l-7.2 10L44 32h-4.5L34 23l-5.5 9H24l7.5-10L24 12z"
        fill="white"/>

  <!-- DevX wordmark -->
  <!-- D -->
  <path d="M58 10h6.5c5.5 0 8.5 3.5 8.5 11s-3 11-8.5 11H58V10z
           M62 14v14h2.5c3 0 4.5-1.8 4.5-7s-1.5-7-4.5-7H62z"
        fill="#111827"/>
  <!-- e -->
  <path d="M76.5 21.5c0-4.5 2.8-7 6.5-7s6 2.5 6 6.5v1.5H80.3c.2 2 1.5 3 3.2 3
           1.4 0 2.4-.6 3-1.5l2.8 1.8c-1.2 2-3.2 3-5.8 3C79.2 28.8 76.5 26.2 76.5 21.5z
           M80.3 20.5h5c-.2-1.8-1.2-2.8-2.5-2.8S80.5 18.8 80.3 20.5z"
        fill="#111827"/>
  <!-- v -->
  <path d="M91 15l4 10 4-10h4l-6 13.5h-4L87 15z"
        fill="#111827"/>
  <!-- X -->
  <path d="M104 15l4 5.5 4-5.5h4l-6 7 6.5 6.5h-4.5l-4-5.5-4 5.5H100l6.5-6.5-6-7z"
        fill="#1B6FE4"/>
</svg>
