<?xml version="1.0" encoding="UTF-8"?><svg id="AW" xmlns="http://www.w3.org/2000/svg" viewBox="0 0 1065 148"><path d="m237.601,90.564c0,13.008-10.948,21.896-28.075,21.896s-28.075-8.997-28.075-24.606h11.815c.217,9.322,7.263,14.634,16.91,14.634,8.563,0,15.176-4.878,15.176-12.683,0-7.046-5.528-11.599-16.043-11.599h-6.938v-9.973h6.287c9.973,0,14.959-4.986,14.959-11.924s-6.179-11.057-14.092-11.057c-8.563,0-14.742,5.203-14.959,13.116h-11.707c.108-13.658,11.057-23.089,26.666-23.089,16.368,0,26.341,8.13,26.341,20.271,0,9.322-5.42,14.851-12.683,16.802,7.479,1.518,14.417,6.829,14.417,18.211Z" fill="#111" stroke-width="0"/><path d="m243.552,74.413c0-24.606,11.382-39.132,29.918-39.132,13.983,0,24.173,8.13,26.016,21.463h-11.924c-1.626-7.046-6.721-11.49-14.851-11.49-11.707,0-18.211,10.189-18.211,25.907,0,.867,0,1.518.108,2.927.217-.434.325-1.084.759-1.843,3.469-6.612,10.623-10.948,19.729-10.948,15.067,0,25.582,10.189,25.582,25.582,0,14.959-11.057,25.582-27.208,25.582-10.515,0-18.428-4.553-23.522-12.249-4.011-6.612-6.396-15.609-6.396-25.799Zm30.026-3.252c-9.214,0-15.609,6.396-15.609,15.826,0,9.214,6.179,15.609,15.393,15.609s15.284-6.504,15.284-15.718-5.745-15.718-15.067-15.718Z" fill="#111" stroke-width="0"/><path d="m362.791,86.336c0,17.019-12.683,26.016-27.533,26.016-17.235,0-27.425-10.948-28.184-24.498h11.924c.867,7.913,6.612,14.417,16.368,14.417,7.805,0,15.284-5.42,15.284-15.935,0-9.214-5.962-15.826-15.284-15.826-4.553,0-12.249,1.518-15.284,9.322l-11.599-.217,2.385-43.685h47.37v10.515h-36.422l-1.301,20.596c4.228-4.553,9.973-6.396,16.91-6.396,15.067,0,25.365,10.406,25.365,25.69Z" fill="#111" stroke-width="0"/><path d="m398.779,35.931h29.918c15.826,0,26.449,9.431,26.449,24.173,0,10.189-5.854,18.319-14.742,21.463l16.043,30.243h-13.875l-14.634-27.533h-16.693v27.533h-12.466V35.931Zm12.466,10.84v26.666h16.477c8.889,0,14.634-5.203,14.634-13.333s-5.745-13.333-14.634-13.333h-16.477Z" fill="#111" stroke-width="0"/><path d="m459.524,84.168c0-17.127,10.948-28.509,27.316-28.509,16.043,0,26.774,10.189,27.1,26.449,0,1.409-.108,2.927-.325,4.444h-41.842v.759c.325,9.431,6.287,15.609,15.501,15.609,7.154,0,12.357-3.577,13.983-9.756h11.707c-1.951,10.948-11.273,19.295-25.04,19.295-17.452,0-28.4-11.273-28.4-28.292Zm42.275-6.179c-.976-8.238-6.721-12.899-14.851-12.899-7.479,0-13.875,4.986-14.742,12.899h29.593Z" fill="#111" stroke-width="0"/><path d="m524.986,66.608h-9.647v-10.298h9.647v-15.501h11.815v15.501h13.55v10.298h-13.55v28.942c0,4.336,1.518,5.962,5.962,5.962h8.238v10.298h-10.84c-10.623,0-15.176-4.986-15.176-15.067v-30.135Z" fill="#111" stroke-width="0"/><path d="m609.786,101.621v10.189h-6.179c-7.588,0-10.189-3.36-10.189-8.889-3.686,5.637-9.322,9.539-18.319,9.539-12.141,0-20.596-5.962-20.596-16.26,0-11.382,8.238-17.777,23.739-17.777h13.983v-3.36c0-6.179-4.444-9.973-12.141-9.973-6.938,0-11.599,3.252-12.466,8.13h-11.49c1.192-10.84,10.515-17.561,24.498-17.561,14.742,0,23.197,7.046,23.197,20.162v22.222c0,2.818,1.192,3.577,3.577,3.577h2.385Zm-17.561-14.525h-14.525c-7.263,0-11.273,2.71-11.273,8.347,0,4.661,3.902,7.913,10.298,7.913,9.756,0,15.393-5.745,15.501-14.309v-1.951Z" fill="#111" stroke-width="0"/><path d="m613.537,41.459c0-4.119,3.144-7.046,7.154-7.046s7.154,2.927,7.154,7.046-3.144,7.046-7.154,7.046-7.154-2.927-7.154-7.046Zm1.192,14.851h11.707v55.5h-11.707v-55.5Z" fill="#111" stroke-width="0"/><path d="m636.039,35.931h11.707v75.879h-11.707V35.931Z" fill="#111" stroke-width="0"/><path d="m686.443,35.931h16.151l24.281,59.728,23.848-59.728h15.826v75.879h-12.032v-55.825l-22.764,55.825h-10.515l-22.764-55.825v55.825h-12.032V35.931Z" fill="#111" stroke-width="0"/><path d="m830.581,101.621v10.189h-6.179c-7.588,0-10.189-3.36-10.189-8.889-3.686,5.637-9.322,9.539-18.319,9.539-12.141,0-20.596-5.962-20.596-16.26,0-11.382,8.238-17.777,23.739-17.777h13.983v-3.36c0-6.179-4.444-9.973-12.141-9.973-6.938,0-11.599,3.252-12.466,8.13h-11.49c1.192-10.84,10.515-17.561,24.498-17.561,14.742,0,23.197,7.046,23.197,20.162v22.222c0,2.818,1.192,3.577,3.577,3.577h2.385Zm-17.561-14.525h-14.525c-7.263,0-11.273,2.71-11.273,8.347,0,4.661,3.902,7.913,10.298,7.913,9.756,0,15.393-5.745,15.501-14.309v-1.951Z" fill="#111" stroke-width="0"/><path d="m866.547,56.31v10.948h-5.203c-10.406,0-13.767,8.13-13.767,16.693v27.858h-11.707v-55.5h10.406l1.301,8.347c2.818-4.661,7.263-8.347,16.368-8.347h2.602Z" fill="#111" stroke-width="0"/><path d="m871.165,35.931h11.707v47.262l25.148-26.883h13.767l-20.921,22.438,22.222,33.062h-13.875l-16.368-24.498-9.973,10.406v14.092h-11.707V35.931Z" fill="#111" stroke-width="0"/><path d="m921.093,84.168c0-17.127,10.948-28.509,27.316-28.509,16.043,0,26.774,10.189,27.1,26.449,0,1.409-.108,2.927-.325,4.444h-41.842v.759c.325,9.431,6.287,15.609,15.501,15.609,7.154,0,12.357-3.577,13.983-9.756h11.707c-1.951,10.948-11.273,19.295-25.04,19.295-17.452,0-28.4-11.273-28.4-28.292Zm42.275-6.179c-.976-8.238-6.721-12.899-14.851-12.899-7.479,0-13.875,4.986-14.742,12.899h29.593Z" fill="#111" stroke-width="0"/><path d="m986.555,66.608h-9.647v-10.298h9.647v-15.501h11.815v15.501h13.55v10.298h-13.55v28.942c0,4.336,1.518,5.962,5.962,5.962h8.238v10.298h-10.84c-10.623,0-15.176-4.986-15.176-15.067v-30.135Z" fill="#111" stroke-width="0"/><path d="m1026.988,93.491c.434,5.745,5.42,9.864,13.875,9.864,7.263,0,12.032-2.818,12.032-7.263,0-5.962-5.095-6.396-13.658-7.479-12.683-1.518-22.655-4.228-22.655-15.718,0-10.515,9.431-17.344,22.764-17.235,13.658,0,23.306,6.287,24.064,17.669h-11.49c-.65-5.095-5.42-8.672-12.357-8.672s-11.49,2.818-11.49,7.263c0,5.203,5.312,5.854,13.333,6.721,12.683,1.518,22.98,4.119,22.98,16.477,0,10.623-10.081,17.344-23.522,17.344-14.851,0-25.04-6.938-25.365-18.97h11.49Z" fill="#111" stroke-width="0"/><path d="m74.615,124c-27.57,0-50-22.43-50-50h12c0,20.953,17.047,38,38,38s38-17.047,38-38-17.047-38-38-38v-12c27.57,0,50,22.43,50,50s-22.43,50-50,50Z" fill="#006dff" stroke-width="0"/><path d="m74.615,148C33.811,148,.615,114.804.615,74S33.811,0,74.615,0s74,33.196,74,74h-12c0-34.187-27.813-62-62-62S12.615,39.813,12.615,74s27.813,62,62,62v12Z" fill="#006dff" stroke-width="0"/></svg>